<svg xmlns="http://www.w3.org/2000/svg" xmlns:xlink="http://www.w3.org/1999/xlink" width="120" height="35.021" viewBox="0 0 120 35.021">
  <defs>
    <clipPath id="clip-path">
      <rect id="長方形_12653" data-name="長方形 12653" width="120" height="35.021" fill="#1a3a3c"/>
    </clipPath>
  </defs>
  <g id="グループ_14343" data-name="グループ 14343" transform="translate(-1290 -586)">
    <g id="グループ_13489" data-name="グループ 13489" transform="translate(1290 586)">
      <g id="グループ_13488" data-name="グループ 13488" transform="translate(0 0)" clip-path="url(#clip-path)">
        <path id="パス_26454" data-name="パス 26454" d="M21.293.074A3.852,3.852,0,1,1,17.023,5.4l-.679-.133.426-2.162A3.847,3.847,0,0,1,21.293.074m1.9,4.3A2.7,2.7,0,1,0,20.026,6.5a2.7,2.7,0,0,0,3.168-2.123M7.719,25.715c.059-.293.461-2.325.461-2.325H.329c-2.1,10.628,6.436,11.631,8.79,11.631,2.984,0,9.408-1,11.145-9.821.723-3.66,3.33-16.883,3.33-16.883H15.743s-3.113,15.771-3.6,18.268a2.253,2.253,0,1,1-4.421-.869m98.659-11.883c-1.606,0-1.664,2.283.328,2.787,6.562,1.656,11.27,2.265,11.27,8.2,0,4.962-5.016,9.194-9.931,9.194H88.6l0-.012c-.149.009-.3.012-.446.012H65.82l3.14-17.7-7.988,17.7H54.287l-.966-17.7-3.932,17.7H38.022l-2.265-17.7-10.529,17.7H17.6l15.285-25.7h9.142l2.22,17.348L48.1,8.318H59.082L59.873,22.8,66.412,8.318h11.43L74.306,28.237H87.358c2.215,0,3.152-2.982.566-3.737C84.074,23.375,77.3,22.048,77.3,16.554c0-3.615,3.6-8.236,8.408-8.236H98l-1.083,5.514H86.5c-1.606,0-1.663,2.283.33,2.787,6.561,1.656,11.269,2.265,11.269,8.2a7.8,7.8,0,0,1-.81,3.416h9.953c2.215,0,3.152-2.982.564-3.737-3.851-1.125-10.622-2.452-10.622-7.945,0-3.615,3.6-8.236,8.412-8.236H119.1l-1.086,5.514Z" transform="translate(0 0)" fill="#1a3a3c"/>
        <path id="パス_26455" data-name="パス 26455" d="M230.159,12.6h.408l.29-1.374a1.016,1.016,0,0,1,.273-.518.9.9,0,0,1,.614-.288c.242,0,.432.111.432.347a2.546,2.546,0,0,1-.058.383L231.8,12.6h.409l.3-1.417a2.6,2.6,0,0,0,.068-.487c0-.435-.222-.637-.688-.637a1.1,1.1,0,0,0-.883.432H231l.077-.374h-.393Zm-2.241-.985a.627.627,0,0,0,.683.683c.594,0,.92-.686.92-1.177a.628.628,0,0,0-.655-.7c-.623,0-.948.684-.948,1.195m-.409.006a1.446,1.446,0,0,1,1.387-1.561.931.931,0,0,1,1.033,1.028,1.443,1.443,0,0,1-1.372,1.571.984.984,0,0,1-1.047-1.038m-1.173.979h.409l.518-2.482h-.408Zm1.13-3.427h-.412l-.107.5h.411Zm-1.4.21h-.409l-.155.734h-.417l-.077.361h.418l-.327,1.54a1.045,1.045,0,0,0-.024.2c0,.319.252.4.557.4a1.39,1.39,0,0,0,.287-.027l.072-.377a.736.736,0,0,1-.236.046c-.123,0-.246-.039-.246-.17,0-.057.012-.105.017-.163l.306-1.458h.494l.078-.361h-.5Zm-3.348,2.567c0,.232.216.347.447.347a.773.773,0,0,0,.7-.327,1.805,1.805,0,0,0,.215-.638h-.01a2.444,2.444,0,0,1-.8.168c-.293.043-.552.135-.552.45m-.1-1.084a.981.981,0,0,1,1.073-.807c.481,0,.908.129.908.633a2.5,2.5,0,0,1-.076.451l-.157.677a1.929,1.929,0,0,0-.068.356c0,.116.051.151.12.151a.44.44,0,0,0,.129-.031l-.063.3a.648.648,0,0,1-.25.059.29.29,0,0,1-.32-.352L223.9,12.3a.936.936,0,0,1-.83.361.667.667,0,0,1-.759-.7c0-.719.705-.769,1.253-.815.431-.041.625-.063.625-.395,0-.268-.284-.327-.5-.327-.312,0-.617.125-.667.447ZM220.737,12.6h.405l.238-1.1a1.638,1.638,0,0,1,.2-.581.9.9,0,0,1,.529-.4.841.841,0,0,1,.244-.024.972.972,0,0,1,.119,0l.1-.437a.962.962,0,0,0-.142,0,1.032,1.032,0,0,0-.905.589h-.007l.119-.531h-.383Zm-2.241-.985a.626.626,0,0,0,.68.683c.594,0,.92-.686.92-1.177a.627.627,0,0,0-.653-.7c-.621,0-.948.684-.948,1.195m-.409.006a1.445,1.445,0,0,1,1.389-1.561.932.932,0,0,1,1.031,1.028,1.444,1.444,0,0,1-1.374,1.571.983.983,0,0,1-1.046-1.038m-.744-.543a.579.579,0,0,0-.64-.658c-.62,0-.97.716-.97,1.236a.593.593,0,0,0,.624.642c.649,0,.986-.673.986-1.219m-1.695-.961h.384l-.087.356h.01a.991.991,0,0,1,1.8.605,1.489,1.489,0,0,1-1.378,1.58.746.746,0,0,1-.772-.439h-.009l-.266,1.33h-.4ZM213.535,12.6h.409l.232-1.1a1.7,1.7,0,0,1,.209-.581.9.9,0,0,1,.527-.4.834.834,0,0,1,.246-.024.982.982,0,0,1,.12,0l.1-.437a.978.978,0,0,0-.143,0,1.031,1.031,0,0,0-.9.589h-.007l.12-.531h-.385Zm-2.241-.985a.625.625,0,0,0,.68.683c.6,0,.923-.686.923-1.177a.628.628,0,0,0-.653-.7c-.625,0-.95.684-.95,1.195m-.408.006a1.445,1.445,0,0,1,1.385-1.561.93.93,0,0,1,1.032,1.028,1.442,1.442,0,0,1-1.37,1.571.983.983,0,0,1-1.046-1.038m-.835-.179a1.047,1.047,0,0,1-1.062.856c-.687,0-1.013-.455-1.013-1.117a1.541,1.541,0,0,1,1.426-1.7.756.756,0,0,1,.85.8h.456A1.161,1.161,0,0,0,209.4,9.091a1.936,1.936,0,0,0-1.881,2.09,1.358,1.358,0,0,0,1.468,1.5,1.448,1.448,0,0,0,1.517-1.242Zm-4.246-.594c0-.581-.476-.788-.935-.788s-.923.255-.923.714c0,.376.327.544.661.673s.651.232.651.47c0,.284-.3.38-.566.38-.342,0-.655-.111-.635-.482h-.409c0,.637.439.843,1,.843.482,0,1.015-.217,1.015-.769,0-.389-.331-.564-.657-.7s-.653-.225-.653-.455c0-.249.277-.317.526-.317.284,0,.535.146.514.428ZM199.582,12.6h.405l.278-1.3a.936.936,0,0,1,.266-.56.89.89,0,0,1,.609-.317.308.308,0,0,1,.347.327,3.047,3.047,0,0,1-.077.437l-.3,1.417h.41l.273-1.282a1.132,1.132,0,0,1,.231-.557.888.888,0,0,1,.623-.341.352.352,0,0,1,.38.337,1.218,1.218,0,0,1-.038.266l-.345,1.577h.407l.312-1.488a2.53,2.53,0,0,0,.071-.494c0-.4-.339-.557-.689-.557a1.091,1.091,0,0,0-.851.446.565.565,0,0,0-.625-.446,1.137,1.137,0,0,0-.863.437l-.009-.009.09-.37h-.378ZM199,11.122a.577.577,0,0,0-.583-.7.879.879,0,0,0-.858.7Zm-1.5.361a1.418,1.418,0,0,0-.017.214.6.6,0,0,0,.646.6.7.7,0,0,0,.713-.476h.41a1.082,1.082,0,0,1-1.123.837.952.952,0,0,1-1.053-1,1.44,1.44,0,0,1,1.278-1.6c.731,0,1.051.4,1.051,1.1a1.632,1.632,0,0,1-.038.323Zm-.769-2.1h-.407l-.153.734h-.419l-.077.361h.419l-.326,1.54a1,1,0,0,0-.024.2c0,.319.254.4.557.4a1.4,1.4,0,0,0,.29-.027l.07-.377a.748.748,0,0,1-.236.046c-.124,0-.243-.039-.243-.17,0-.057.009-.105.014-.163l.307-1.458h.494l.078-.361h-.5Zm-1.41,1.464c0-.581-.476-.788-.936-.788s-.922.255-.922.714c0,.376.326.544.657.673s.652.232.652.47c0,.284-.3.38-.568.38-.338,0-.651-.111-.633-.482h-.408c0,.637.437.843,1,.843.482,0,1.013-.217,1.013-.769,0-.389-.33-.564-.657-.7s-.653-.225-.653-.455c0-.249.278-.317.527-.317.283,0,.533.146.515.428Zm-2-.73h-.446l-1.04,1.973h-.013l-.286-1.973H191.1l.437,2.482-.251.413a.443.443,0,0,1-.384.267.522.522,0,0,1-.236-.066l-.072.332a.689.689,0,0,0,.284.06c.417,0,.6-.262.8-.584Zm-2.587.068c.024-.765-.568-1.1-1.243-1.1-.611,0-1.249.33-1.249.994a.892.892,0,0,0,.767.863l.467.125c.335.092.61.218.61.567,0,.461-.432.658-.859.658-.557,0-.942-.2-.911-.821h-.457c-.057.839.522,1.206,1.348,1.206.619,0,1.335-.338,1.335-1.044,0-.615-.4-.81-.828-.926l-.459-.124c-.312-.086-.555-.221-.555-.553,0-.407.456-.56.791-.56.47,0,.8.166.787.71Zm-4.891.935a.577.577,0,0,0-.581-.7.883.883,0,0,0-.862.7Zm-1.5.361a2.087,2.087,0,0,0-.013.214.6.6,0,0,0,.641.6.707.707,0,0,0,.718-.476h.408a1.083,1.083,0,0,1-1.125.837.951.951,0,0,1-1.051-1,1.439,1.439,0,0,1,1.278-1.6c.729,0,1.051.4,1.051,1.1a1.6,1.6,0,0,1-.038.323Zm-.644-.577a.812.812,0,0,0-.93-.845,1.406,1.406,0,0,0-1.372,1.527.947.947,0,0,0,1.02,1.071,1.105,1.105,0,0,0,1.134-.87h-.409a.751.751,0,0,1-.725.509c-.455,0-.612-.327-.612-.71a1.075,1.075,0,0,1,.965-1.167.471.471,0,0,1,.522.485Zm-4.538,1.046c0,.232.217.347.449.347a.767.767,0,0,0,.7-.327,1.808,1.808,0,0,0,.217-.638h-.011a2.457,2.457,0,0,1-.8.168c-.3.043-.556.135-.556.45m-.1-1.084a.98.98,0,0,1,1.074-.807c.481,0,.907.129.907.633a2.5,2.5,0,0,1-.076.451l-.158.677a1.93,1.93,0,0,0-.067.356c0,.116.052.151.119.151a.4.4,0,0,0,.129-.031l-.059.3a.653.653,0,0,1-.251.059.292.292,0,0,1-.323-.352l-.007-.009a.944.944,0,0,1-.834.361.668.668,0,0,1-.758-.7c0-.719.706-.769,1.255-.815.432-.041.624-.063.624-.395,0-.268-.283-.327-.5-.327-.31,0-.62.125-.667.447Zm-.918.212a.579.579,0,0,0-.64-.658c-.619,0-.969.716-.969,1.236a.591.591,0,0,0,.623.642c.648,0,.986-.673.986-1.219m-1.7-.961h.384l-.087.356h.009a.992.992,0,0,1,1.8.605,1.49,1.49,0,0,1-1.379,1.58.752.752,0,0,1-.776-.439h-.009l-.264,1.33h-.4Zm-.652.068c.024-.765-.569-1.1-1.246-1.1-.609,0-1.247.33-1.247.994a.891.891,0,0,0,.767.863l.465.125c.335.092.61.218.61.567,0,.461-.429.658-.859.658-.556,0-.941-.2-.911-.821h-.457c-.057.839.524,1.206,1.349,1.206.621,0,1.336-.338,1.336-1.044,0-.615-.4-.81-.827-.926l-.459-.124c-.312-.086-.557-.221-.557-.553,0-.407.456-.56.791-.56.471,0,.8.166.788.71Zm-6.643,1.454a.58.58,0,0,0,.64.658c.618,0,.968-.716.968-1.234a.591.591,0,0,0-.625-.643c-.646,0-.983.672-.983,1.219m1.7.961h-.384l.085-.356h-.007a.994.994,0,0,1-1.8-.6,1.49,1.49,0,0,1,1.378-1.579.747.747,0,0,1,.775.437h.007l.268-1.324h.4Zm-2.794-1.479a.579.579,0,0,0-.583-.7.878.878,0,0,0-.858.7Zm-1.5.361a1.4,1.4,0,0,0-.016.214.605.605,0,0,0,.645.6.7.7,0,0,0,.714-.476h.409a1.083,1.083,0,0,1-1.123.837.95.95,0,0,1-1.052-1,1.439,1.439,0,0,1,1.276-1.6c.73,0,1.051.4,1.051,1.1a1.6,1.6,0,0,1-.038.323ZM163.389,12.6h.409l.288-1.374a1.015,1.015,0,0,1,.273-.518.9.9,0,0,1,.614-.288c.24,0,.434.111.434.347a3.081,3.081,0,0,1-.057.383l-.317,1.45h.408l.3-1.417a2.509,2.509,0,0,0,.072-.487c0-.435-.225-.637-.688-.637a1.1,1.1,0,0,0-.885.432h-.009l.076-.374h-.395Zm-2.669,0h.408l.288-1.374a1.037,1.037,0,0,1,.275-.518.9.9,0,0,1,.612-.288c.242,0,.434.111.434.347a2.871,2.871,0,0,1-.057.383l-.317,1.45h.409l.3-1.417a2.86,2.86,0,0,0,.072-.487c0-.435-.227-.637-.692-.637a1.094,1.094,0,0,0-.884.432h-.011l.079-.374h-.395Zm-2.108-.649c0,.232.216.347.447.347a.766.766,0,0,0,.7-.327,1.724,1.724,0,0,0,.217-.638h-.011a2.419,2.419,0,0,1-.795.168c-.293.043-.553.135-.553.45m-.105-1.084a.981.981,0,0,1,1.075-.807c.481,0,.908.129.908.633a2.5,2.5,0,0,1-.076.451l-.16.677a2.089,2.089,0,0,0-.066.356c0,.116.053.151.118.151a.448.448,0,0,0,.133-.031l-.064.3a.629.629,0,0,1-.249.059.292.292,0,0,1-.323-.352l-.007-.009a.942.942,0,0,1-.832.361.667.667,0,0,1-.758-.7c0-.719.706-.769,1.255-.815.431-.041.621-.063.621-.395,0-.268-.282-.327-.5-.327-.311,0-.62.125-.667.447Zm-4.4,1.733h.439l.6-3h.01l.446,3h.437l1.747-3h.009l-.7,3h.439l.725-3.427h-.635l-1.693,2.947h-.011l-.457-2.947h-.633Zm-4.061,0h.408l.289-1.374a1.023,1.023,0,0,1,.273-.518.9.9,0,0,1,.614-.288c.24,0,.433.111.433.347a2.6,2.6,0,0,1-.059.383l-.316,1.45h.408l.3-1.417a2.668,2.668,0,0,0,.072-.487c0-.435-.224-.637-.691-.637a1.1,1.1,0,0,0-.884.432h-.009l.077-.374h-.395Zm-2.108-.649c0,.232.218.347.446.347a.768.768,0,0,0,.7-.327,1.764,1.764,0,0,0,.216-.638h-.008a2.473,2.473,0,0,1-.8.168c-.3.043-.553.135-.553.45m-.105-1.084a.983.983,0,0,1,1.077-.807c.479,0,.907.129.907.633a2.328,2.328,0,0,1-.077.451l-.158.677a2.126,2.126,0,0,0-.068.356c0,.116.054.151.122.151a.44.44,0,0,0,.129-.031l-.062.3a.647.647,0,0,1-.251.059.289.289,0,0,1-.319-.352l-.011-.009a.939.939,0,0,1-.83.361.667.667,0,0,1-.758-.7c0-.719.705-.769,1.252-.815.432-.041.624-.063.624-.395,0-.268-.284-.327-.5-.327-.314,0-.62.125-.669.447Zm-.916.212a.578.578,0,0,0-.638-.658c-.619,0-.97.716-.97,1.236a.593.593,0,0,0,.625.642c.647,0,.983-.673.983-1.219m-1.695-.961h.383l-.085.356h.009a.991.991,0,0,1,1.8.605,1.489,1.489,0,0,1-1.377,1.58.747.747,0,0,1-.773-.439h-.01l-.264,1.33h-.4ZM142.6,11.952c0,.232.218.347.446.347a.77.77,0,0,0,.7-.327,1.767,1.767,0,0,0,.214-.638h-.01a2.431,2.431,0,0,1-.8.168c-.293.043-.551.135-.551.45m-.105-1.084a.98.98,0,0,1,1.075-.807c.481,0,.907.129.907.633a2.323,2.323,0,0,1-.078.451l-.157.677a1.961,1.961,0,0,0-.068.356c0,.116.052.151.12.151a.423.423,0,0,0,.129-.031l-.063.3a.63.63,0,0,1-.251.059.29.29,0,0,1-.319-.352l-.011-.009a.934.934,0,0,1-.83.361.668.668,0,0,1-.758-.7c0-.719.7-.769,1.253-.815.431-.041.625-.063.625-.395,0-.268-.282-.327-.5-.327-.312,0-.62.125-.668.447Zm-.769.888c-.126.59-.383.928-1.07.928-.552,0-.95-.257-.95-.733a2.743,2.743,0,0,1,.043-.474h.461a2.041,2.041,0,0,0-.048.356c0,.326.192.465.5.465.459,0,.572-.4.653-.778l.5-2.346h.451Z" transform="translate(-112.581 -7.326)" fill="#1a3a3c"/>
      </g>
    </g>
  </g>
</svg>
